<svg xmlns="http://www.w3.org/2000/svg" viewBox="0 0 1050 600" width="100%" height="100%">
  <defs>
    <linearGradient id="bg" x1="0" y1="0" x2="1" y2="1">
      <stop offset="0%" stop-color="#0B1220"/>
      <stop offset="100%" stop-color="#0D1A2E"/>
    </linearGradient>

    <linearGradient id="goldGrad" x1="0" y1="0" x2="1" y2="0">
      <stop offset="0%"  stop-color="#B8781A"/>
      <stop offset="40%" stop-color="#E0AA3E"/>
      <stop offset="70%" stop-color="#C8922A"/>
      <stop offset="100%" stop-color="#A06010"/>
    </linearGradient>

    <pattern id="gridPattern" width="40" height="40" patternUnits="userSpaceOnUse">
      <path d="M 40 0 L 0 0 0 40" fill="none" stroke="#C8922A" stroke-width="0.5" stroke-opacity="0.08" />
    </pattern>
  </defs>

  <rect width="1050" height="600" fill="url(#bg)"/>
  <rect width="1050" height="600" fill="url(#gridPattern)"/>

  <line x1="480" y1="60" x2="480" y2="540" stroke="#C8922A" stroke-width="1" opacity="0.3"/>

  <rect x="70" y="180" width="230" height="24" rx="12" fill="none" stroke="#C8922A" stroke-width="1" opacity="0.6"/>
  <circle cx="85" cy="192" r="4" fill="#C8922A" opacity="0.8"/>
  <text x="100" y="196" font-family="'Courier New', monospace" font-size="10" fill="#C8922A" letter-spacing="1.5">DIGITAL TRANSFORMATION</text>

  <text x="68" y="270" font-family="Georgia, 'Times New Roman', serif" font-size="68" font-weight="700" fill="#FFFFFF" letter-spacing="-1.5">ROYCE</text>
  <text x="68" y="340" font-family="Georgia, 'Times New Roman', serif" font-size="68" font-weight="700" fill="url(#goldGrad)" letter-spacing="-1.5">TRUSS</text>

  <text x="70" y="390" font-family="Georgia, 'Times New Roman', serif" font-size="16" font-style="italic" fill="#FFFFFF" opacity="0.6" letter-spacing="0.5">Not a vendor. A technology partner.</text>

  <text x="540" y="210" font-family="Georgia, 'Times New Roman', serif" font-size="32" font-weight="700" fill="#FFFFFF">Er. Pritesh P Kedar</text>
  <text x="540" y="240" font-family="'Courier New', monospace" font-size="14" fill="#C8922A" letter-spacing="1.5">Founder</text>

  <g transform="translate(540, 310)">
    <rect x="0" y="-12" width="16" height="16" rx="4" fill="#C8922A" fill-opacity="0.15" stroke="#C8922A" stroke-width="1"/>
    <text x="32" y="1" font-family="'Courier New', monospace" font-size="13" fill="#FFFFFF" opacity="0.85">+91 8407979789</text>
  </g>

  <g transform="translate(540, 350)">
    <rect x="0" y="-12" width="16" height="16" rx="4" fill="#C8922A" fill-opacity="0.15" stroke="#C8922A" stroke-width="1"/>
    <text x="32" y="1" font-family="'Courier New', monospace" font-size="13" fill="#FFFFFF" opacity="0.85">www.roycetruss.com</text>
  </g>

  <rect x="540" y="420" width="85" height="22" rx="11" fill="none" stroke="#C8922A" stroke-width="1" opacity="0.4"/>
  <text x="582.5" y="434.5" text-anchor="middle" font-family="'Courier New', monospace" font-size="9.5" fill="#FFFFFF" opacity="0.6" letter-spacing="0.5">Healthcare</text>

  <rect x="635" y="420" width="45" height="22" rx="11" fill="none" stroke="#C8922A" stroke-width="1" opacity="0.4"/>
  <text x="657.5" y="434.5" text-anchor="middle" font-family="'Courier New', monospace" font-size="9.5" fill="#FFFFFF" opacity="0.6" letter-spacing="0.5">IoT</text>

  <rect x="690" y="420" width="105" height="22" rx="11" fill="none" stroke="#C8922A" stroke-width="1" opacity="0.4"/>
  <text x="742.5" y="434.5" text-anchor="middle" font-family="'Courier New', monospace" font-size="9.5" fill="#FFFFFF" opacity="0.6" letter-spacing="0.5">Manufacturing</text>

  <text x="540" y="520" font-family="'Courier New', monospace" font-size="10" fill="#FFFFFF" opacity="0.3" letter-spacing="1">GST: 27ABHFR8469G1ZL · Maharashtra, India</text>

  <line x1="30" y1="30" x2="45" y2="30" stroke="#C8922A" stroke-width="1" opacity="0.5"/>
  <line x1="30" y1="30" x2="30" y2="45" stroke="#C8922A" stroke-width="1" opacity="0.5"/>
  <line x1="1020" y1="30" x2="1005" y2="30" stroke="#C8922A" stroke-width="1" opacity="0.5"/>
  <line x1="1020" y1="30" x2="1020" y2="45" stroke="#C8922A" stroke-width="1" opacity="0.5"/>
  <line x1="30" y1="570" x2="45" y2="570" stroke="#C8922A" stroke-width="1" opacity="0.5"/>
  <line x1="30" y1="570" x2="30" y2="555" stroke="#C8922A" stroke-width="1" opacity="0.5"/>
  <line x1="1020" y1="570" x2="1005" y2="570" stroke="#C8922A" stroke-width="1" opacity="0.5"/>
  <line x1="1020" y1="570" x2="1020" y2="555" stroke="#C8922A" stroke-width="1" opacity="0.5"/>
</svg>
